<?xml version="1.0" standalone="no"?><!DOCTYPE svg PUBLIC "-//W3C//DTD SVG 1.1//EN" "http://www.w3.org/Graphics/SVG/1.1/DTD/svg11.dtd"><svg class="icon" height="512" viewBox="0 0 1024 1024" version="1.1" xmlns="http://www.w3.org/2000/svg"><path d="M592.5376 637.11232c-7.31136 36.56704-10.97728 76.81024-18.2784 113.37728-3.65568 14.6432-18.29888 62.18752 18.2784 51.21024 21.94432-7.31136 135.34208-84.13184 135.34208-84.13184l-135.34208-80.45568z m21.94432-32.9216l131.67616 84.13184 230.44096-336.51712-142.66368-95.09888-219.45344 347.48416z m241.408-373.08416L991.232 315.22816s51.2-32.9216 25.6-84.1216c-29.26592-21.95456-58.51136-58.5216-95.09888-58.5216-10.96704 0-21.95456 3.65568-32.9216 10.97728-3.65568 3.64544-36.56704 43.8784-32.9216 47.54432zM570.60352 589.55776c7.31136-18.28864 14.63296-32.9216 25.6-51.21024 18.2784-29.26592 223.11936-340.16256 226.77504-347.48416 3.66592-7.31136 14.6432-21.95456 14.6432-29.25568v-21.95456c0-18.28864 0-32.91136-14.6432-47.55456-10.96704-10.96704-29.24544-21.94432-47.55456-25.6-14.62272-3.65568-25.6 0-40.23296 0H128.02048c-29.26592 0-47.55456 32.91136-54.86592 58.5216v98.75456h36.57728c40.23296 0 73.15456 32.9216 73.15456 73.15456v18.28864c0 40.23296-32.9216 73.15456-73.15456 73.15456H73.15456v43.88864h36.57728c40.23296 0 73.15456 32.9216 73.15456 73.15456v18.29888c0 40.23296-32.9216 73.15456-73.15456 73.15456H73.15456v43.88864h36.57728c40.23296 0 73.15456 32.9216 73.15456 73.1648v18.28864c0 40.23296-32.9216 73.15456-73.15456 73.15456H73.15456v80.46592c0 29.25568 14.63296 73.15456 51.2 73.15456h654.72512c18.28864 0 40.2432-21.95456 47.5648-36.56704 10.96704-18.28864 7.30112-43.89888 7.30112-65.8432V640.75776c-3.64544 3.66592-65.8432 98.7648-76.8 109.73184-10.97728 10.97728-25.6 18.28864-43.89888 25.61024-32.9216 14.63296-124.3648 62.17728-171.89888 87.78752-10.97728 7.31136-25.61024-3.66592-21.94432-18.28864 14.62272-69.49888 36.56704-219.46368 43.88864-237.76256 3.64544-3.64544 3.64544-10.96704 7.31136-18.2784z m-259.69664-365.7728h292.608c21.95456 0 36.58752 14.63296 36.58752 36.57728s-14.6432 36.57728-36.58752 36.57728H310.90688c-21.95456 0-36.57728-14.63296-36.57728-36.57728s14.62272-36.57728 36.57728-36.57728z m182.87616 267.008H310.90688c-21.95456 0-36.57728-14.63296-36.57728-36.57728s14.63296-36.56704 36.57728-36.56704h182.87616c21.94432 0 36.57728 14.63296 36.57728 36.56704 0 18.28864-18.28864 36.57728-36.57728 36.57728zM109.73184 260.36224H36.57728C18.28864 260.36224 0 278.65088 0 296.93952v18.28864c0 18.28864 18.28864 36.57728 36.57728 36.57728h73.15456c18.28864 0 36.57728-18.28864 36.57728-36.57728v-18.28864c0-18.28864-18.28864-36.57728-36.57728-36.57728z m0 212.14208H36.57728C18.28864 472.50432 0 490.79296 0 509.0816v18.29888c0 18.28864 18.28864 36.56704 36.57728 36.56704h73.15456c18.28864 0 36.57728-18.2784 36.57728-36.56704v-18.29888c0-21.94432-18.28864-36.57728-36.57728-36.57728z m0 208.49664H36.57728C18.28864 681.00096 0 695.63392 0 717.568v18.29888c0 18.28864 18.28864 36.56704 36.57728 36.56704h73.15456c18.28864 0 36.57728-18.2784 36.57728-36.56704v-18.29888c0-21.93408-18.28864-36.56704-36.57728-36.56704z" /></svg>